<?xml version="1.0" encoding="UTF-8" standalone="no"?>
<!DOCTYPE svg PUBLIC "-//W3C//DTD SVG 1.1//EN" "http://www.w3.org/Graphics/SVG/1.1/DTD/svg11.dtd">
<svg xmlns="http://www.w3.org/2000/svg" version="1.1" viewBox="0.00 0.00 1448.00 1448.00">
<g stroke-width="2.00" fill="none" stroke-linecap="butt">
</g>
<path fill="#f8c54f" d="
  M 510.05 680.60
  C 513.60 679.16 516.34 677.21 519.46 675.29
  Q 529.63 669.04 537.95 660.95
  Q 541.70 657.30 545.74 654.17
  C 549.41 651.34 552.54 648.08 556.36 645.25
  Q 566.73 637.55 576.95 629.43
  A 2.32 2.32 0.0 0 1 580.00 629.58
  C 589.95 639.17 599.52 649.52 609.65 658.90
  Q 611.17 660.31 609.59 661.66
  Q 605.88 664.82 602.00 667.64
  Q 598.06 670.52 594.72 673.27
  C 591.59 675.87 588.47 678.50 585.18 680.98
  Q 576.21 687.75 563.33 698.04
  Q 558.77 701.69 553.50 705.78
  Q 536.56 718.93 523.52 728.67
  Q 518.65 732.31 508.38 732.88
  Q 490.22 733.90 462.51 733.39
  A 1.00 1.00 0.0 0 1 461.53 732.39
  L 461.48 689.57
  A 2.79 2.79 0.0 0 1 464.23 686.77
  Q 470.25 686.69 476.92 687.00
  Q 482.86 687.27 491.46 686.30
  C 497.99 685.57 503.99 683.05 510.05 680.60
  Z"
/>
<path fill="#fff" d="
  M 74.49 696.22
  Q 73.84 692.83 73.41 689.42
  Q 73.40 689.33 73.34 689.40
  Q 73.29 689.45 73.23 689.44
  Q 73.16 689.43 73.17 689.49
  Q 73.49 701.75 73.55 714.00
  C 73.56 714.72 73.42 715.37 73.41 715.84
  Q 73.17 737.30 73.61 758.75
  Q 73.66 761.22 74.43 759.91
  Q 74.80 766.62 80.24 768.64
  Q 84.26 770.13 88.26 771.31
  Q 89.43 771.66 89.60 772.66
  Q 89.75 773.52 88.88 773.52
  Q 72.72 773.42 54.62 773.51
  Q 53.65 773.51 52.88 773.05
  A 0.98 0.98 0.0 0 1 53.13 771.26
  C 57.07 770.25 61.63 769.25 64.83 766.85
  C 66.85 765.34 67.27 761.67 67.54 759.22
  Q 68.12 759.15 68.14 758.38
  Q 69.33 712.23 67.73 657.76
  Q 67.17 655.77 66.38 654.02
  Q 65.47 651.99 63.87 651.07
  C 60.66 649.22 57.13 648.39 53.49 647.74
  A 1.16 1.16 0.0 0 1 52.65 646.10
  Q 53.07 645.23 54.07 645.23
  Q 70.31 645.38 86.38 645.31
  A 2.54 2.54 0.0 0 1 88.66 646.70
  C 92.81 654.86 96.24 663.36 100.05 671.46
  Q 102.06 675.75 103.88 679.96
  C 106.35 685.67 109.63 690.98 111.84 696.67
  Q 114.19 702.71 117.30 708.81
  C 120.07 714.26 122.37 720.00 125.07 725.50
  Q 129.82 735.15 133.87 745.99
  Q 134.07 746.51 134.62 746.50
  C 137.12 746.48 137.87 743.01 138.49 741.11
  C 139.52 737.94 141.22 735.01 142.35 731.89
  Q 143.42 728.96 144.60 726.12
  Q 152.06 708.29 158.75 691.27
  C 160.02 688.04 162.49 683.04 164.03 678.74
  Q 164.89 676.31 165.99 673.77
  Q 170.34 663.73 175.20 650.59
  C 176.20 647.91 177.33 645.25 180.73 645.26
  Q 196.69 645.30 212.17 645.28
  A 0.88 0.84 67.7 0 1 212.80 645.56
  Q 213.39 646.19 213.02 646.61
  Q 212.16 647.61 211.24 647.75
  C 202.04 649.12 198.32 651.25 198.36 661.30
  Q 198.56 715.40 198.44 760.72
  Q 198.41 769.75 211.34 771.48
  Q 211.91 771.55 212.93 772.58
  Q 213.18 772.82 213.00 773.16
  A 0.55 0.54 -76.9 0 1 212.51 773.47
  L 163.75 773.48
  A 0.92 0.89 65.1 0 1 163.15 773.25
  Q 162.32 772.52 162.61 772.08
  Q 163.14 771.28 163.74 771.21
  Q 176.20 769.85 176.19 761.16
  Q 176.13 724.24 176.26 681.26
  Q 176.27 675.07 176.52 669.32
  A 0.86 0.86 0.0 0 0 176.05 668.52
  Q 175.32 668.15 175.03 668.65
  C 173.13 671.97 172.40 675.60 170.84 678.91
  Q 169.09 682.63 168.46 684.26
  Q 163.46 697.22 158.80 708.22
  Q 157.74 710.73 156.68 713.30
  Q 150.44 728.45 144.23 743.62
  Q 143.14 746.29 142.04 748.91
  Q 136.87 761.25 131.51 774.48
  Q 130.84 776.15 128.95 776.49
  C 126.66 776.91 124.73 774.31 123.94 772.51
  C 120.00 763.55 115.84 754.98 111.93 745.99
  Q 109.17 739.61 106.05 733.47
  Q 102.97 727.38 100.14 720.98
  Q 93.02 704.84 85.25 688.93
  C 82.13 682.55 79.71 675.75 76.41 669.18
  Q 75.85 668.08 74.81 667.76
  Q 74.22 667.58 74.23 668.20
  L 74.49 696.22
  Z"
/>
<path fill="#fff" d="
  M 279.21 693.78
  Q 279.27 693.97 279.45 694.09
  Q 279.71 694.25 279.99 694.27
  Q 291.16 694.82 301.61 699.02
  Q 312.16 703.27 318.15 708.85
  Q 324.45 714.72 326.86 725.32
  Q 329.14 735.36 324.89 744.76
  C 322.83 749.32 320.27 753.51 316.46 756.78
  Q 308.20 763.86 299.72 767.22
  Q 284.38 773.31 267.98 773.39
  Q 245.90 773.50 224.32 773.38
  A 0.99 0.98 -10.2 0 1 223.42 772.76
  Q 223.02 771.76 224.07 771.43
  C 226.82 770.56 230.25 770.46 232.64 768.93
  Q 236.99 766.14 236.99 760.07
  Q 236.98 710.83 237.05 660.74
  C 237.07 651.65 232.97 648.57 224.49 647.72
  A 1.08 1.05 -17.0 0 1 223.77 647.35
  Q 223.16 646.64 223.56 646.07
  Q 224.15 645.23 225.19 645.23
  Q 245.11 645.40 265.45 645.33
  Q 273.06 645.30 285.49 647.73
  Q 296.99 649.98 304.83 656.41
  C 311.58 661.95 312.62 671.89 308.17 679.38
  Q 306.18 682.73 301.77 685.20
  Q 295.19 688.90 292.99 689.52
  Q 286.37 691.38 279.44 693.35
  Q 279.09 693.45 279.21 693.78
  Z
  M 259.57 650.21
  L 259.37 690.03
  A 0.97 0.97 0.0 0 0 260.33 691.01
  L 268.28 691.05
  A 20.80 19.02 0.3 0 0 289.18 672.14
  L 289.20 668.42
  A 20.80 19.02 0.3 0 0 268.50 649.29
  L 260.55 649.25
  A 0.97 0.97 0.0 0 0 259.57 650.21
  Z
  M 259.52 696.13
  L 259.40 768.47
  A 1.20 1.20 0.0 0 0 260.59 769.67
  L 267.97 769.69
  A 35.64 35.57 0.1 0 0 303.68 734.18
  L 303.68 730.58
  A 35.64 35.57 0.1 0 0 268.11 694.95
  L 260.73 694.93
  A 1.20 1.20 0.0 0 0 259.52 696.13
  Z"
/>
<path fill="#fff" d="
  M 390.27 714.02
  C 393.79 707.21 397.46 700.64 400.68 693.55
  C 404.83 684.40 410.08 675.02 414.93 666.10
  C 417.90 660.63 418.11 651.83 411.27 648.87
  Q 409.03 647.89 406.79 647.10
  A 0.80 0.80 0.0 0 1 406.69 645.64
  Q 407.56 645.19 408.55 645.21
  Q 426.67 645.60 443.99 645.17
  A 0.65 0.65 0.0 0 1 444.48 646.26
  C 443.51 647.29 442.27 647.76 440.92 648.06
  C 434.50 649.50 429.06 652.39 425.61 658.17
  Q 419.59 668.23 414.86 678.60
  Q 410.32 688.54 404.55 698.93
  C 401.00 705.31 398.09 712.08 394.57 718.53
  C 393.48 720.55 392.78 722.81 392.82 725.16
  Q 393.07 738.75 392.78 759.74
  Q 392.70 765.52 396.85 768.41
  Q 398.25 769.39 401.53 770.37
  Q 403.98 771.10 406.40 771.84
  Q 408.43 772.45 406.59 773.50
  Q 406.40 773.62 406.14 773.61
  Q 381.15 773.39 358.05 773.54
  A 1.18 1.13 59.5 0 1 357.45 773.37
  Q 355.55 772.15 357.52 771.62
  Q 360.76 770.74 364.00 769.78
  C 369.84 768.06 370.35 764.03 370.38 758.74
  Q 370.46 742.91 370.43 726.57
  C 370.42 722.73 369.56 719.53 367.73 716.03
  Q 359.78 700.84 353.38 687.55
  C 352.37 685.45 350.97 683.58 349.92 681.45
  Q 344.98 671.34 339.66 661.46
  Q 337.61 657.67 335.20 655.39
  C 330.99 651.41 325.26 648.96 319.85 646.69
  A 0.59 0.58 -49.4 0 1 319.77 645.65
  Q 320.48 645.22 321.32 645.23
  Q 348.59 645.54 371.49 645.22
  A 0.44 0.43 -75.6 0 1 371.87 645.87
  Q 371.00 647.36 369.46 648.15
  C 365.46 650.18 362.17 653.93 362.66 658.53
  Q 363.00 661.72 365.15 665.67
  C 368.42 671.70 371.11 677.78 374.32 683.97
  Q 382.04 698.85 389.05 714.00
  A 0.68 0.68 0.0 0 0 390.27 714.02
  Z"
/>
<path fill="#fff" d="
  M 788.88 769.62
  Q 792.45 769.66 794.91 768.38
  Q 795.36 768.15 795.61 767.71
  Q 798.95 761.69 800.94 755.71
  Q 802.35 751.46 805.71 747.71
  Q 810.18 742.73 816.83 746.10
  Q 817.34 746.37 817.17 746.92
  C 815.45 752.42 813.28 757.98 813.64 763.68
  C 813.89 767.69 815.43 769.28 817.49 771.99
  A 0.92 0.92 0.0 0 1 816.76 773.47
  L 715.64 773.46
  A 0.55 0.55 0.0 0 1 715.11 772.77
  Q 715.39 771.74 716.40 771.48
  C 720.05 770.55 725.01 769.91 727.11 766.52
  Q 729.36 762.86 729.35 759.16
  Q 729.13 711.50 729.38 659.95
  Q 729.40 656.00 728.25 653.99
  C 725.62 649.44 721.04 648.20 716.24 647.49
  A 0.99 0.99 0.0 0 1 715.74 645.75
  Q 716.38 645.20 717.22 645.21
  Q 738.99 645.49 764.89 645.25
  Q 765.87 645.24 765.62 646.19
  Q 765.50 646.63 765.11 646.89
  Q 764.03 647.61 762.80 647.84
  C 759.12 648.51 754.64 649.05 752.59 652.70
  Q 750.70 656.05 750.71 659.00
  Q 750.78 706.03 750.72 758.00
  C 750.72 759.50 750.81 760.85 751.38 762.26
  Q 754.40 769.74 763.75 769.67
  Q 780.80 769.53 788.88 769.62
  Z"
/>
<path fill="#fff" d="
  M 1162.29 696.27
  C 1162.20 698.37 1162.58 700.61 1162.58 702.78
  Q 1162.53 725.59 1162.43 747.80
  Q 1162.40 753.60 1163.41 757.20
  C 1164.66 761.69 1167.35 767.80 1172.04 769.50
  Q 1178.01 771.66 1184.33 768.91
  C 1189.29 766.75 1191.78 761.49 1192.41 756.19
  A 2.72 2.72 0.0 0 1 1195.10 753.79
  L 1197.74 753.77
  Q 1199.99 753.76 1199.60 755.97
  C 1197.49 768.21 1189.20 774.94 1177.13 775.72
  C 1169.31 776.22 1161.52 775.38 1154.87 771.33
  C 1148.30 767.32 1144.36 761.55 1143.69 754.01
  Q 1143.38 750.63 1143.35 747.50
  Q 1143.11 722.14 1143.55 697.29
  A 2.02 2.02 0.0 0 0 1141.57 695.24
  Q 1134.76 695.10 1128.05 695.14
  Q 1124.43 695.17 1123.97 691.91
  A 1.14 1.12 -25.4 0 1 1124.34 690.90
  Q 1125.74 689.65 1127.53 689.26
  C 1132.80 688.13 1139.70 686.23 1143.63 682.57
  C 1149.81 676.80 1153.80 668.38 1155.03 659.63
  Q 1155.37 657.18 1157.84 657.22
  L 1159.75 657.25
  Q 1162.37 657.29 1162.43 659.90
  C 1162.56 665.45 1162.90 671.02 1162.66 676.64
  Q 1162.41 682.46 1162.59 688.47
  A 1.13 1.12 -0.8 0 0 1163.72 689.56
  L 1186.25 689.53
  Q 1187.72 689.52 1187.72 691.00
  L 1187.71 693.47
  Q 1187.71 695.15 1186.03 695.15
  L 1163.47 695.14
  A 1.18 1.18 0.0 0 0 1162.29 696.27
  Z"
/>
<ellipse fill="#fff" cx="0.00" cy="0.00" transform="translate(1028.19,668.48) rotate(-6.3)" rx="10.19" ry="9.82"/>
<ellipse fill="#fff" cx="0.00" cy="0.00" transform="translate(1222.93,668.44) rotate(3.3)" rx="10.22" ry="9.74"/>
<path fill="#f8417b" d="
  M 510.52 795.14
  C 495.06 794.87 479.46 795.16 463.70 795.04
  A 1.74 1.73 -89.8 0 1 461.98 793.30
  L 461.96 750.26
  A 1.80 1.80 0.0 0 1 463.84 748.46
  Q 469.47 748.67 475.38 748.19
  C 479.93 747.82 484.24 748.28 488.76 748.46
  Q 500.33 748.90 511.94 747.74
  C 520.81 746.85 529.22 743.23 536.54 738.14
  C 542.78 733.80 548.42 729.21 554.23 724.49
  Q 571.46 710.47 592.70 693.94
  C 594.52 692.52 595.96 690.66 597.80 689.28
  Q 610.75 679.53 619.28 675.86
  Q 630.00 671.26 645.90 671.11
  Q 669.89 670.89 694.28 671.11
  Q 696.36 671.13 696.39 673.21
  L 697.02 716.71
  Q 697.02 717.21 696.54 717.36
  Q 694.35 718.00 692.12 717.91
  Q 675.72 717.18 663.33 717.63
  Q 653.09 718.00 640.32 721.71
  Q 628.13 725.26 618.30 731.82
  Q 605.96 740.05 587.63 754.90
  C 580.38 760.77 572.90 766.38 566.04 772.31
  Q 556.36 780.66 547.51 786.36
  C 536.81 793.26 523.26 795.37 510.52 795.14
  Z"
/>
<path fill="#fff" d="
  M 1012.32 692.36
  Q 1011.47 692.61 1011.74 693.45
  C 1014.24 701.15 1010.59 711.38 1000.74 709.13
  Q 997.10 708.30 995.38 705.47
  A 2.62 2.61 -32.5 0 1 996.17 701.94
  C 1004.46 696.42 997.55 687.70 990.53 686.77
  Q 983.41 685.82 977.98 690.40
  A 1.83 1.82 40.1 0 0 978.24 693.37
  Q 994.39 702.87 992.63 721.01
  C 991.59 731.67 981.98 741.42 972.22 745.06
  Q 965.67 747.49 960.15 747.89
  C 951.53 748.50 943.40 748.58 935.07 745.38
  Q 933.35 744.73 931.53 744.69
  Q 931.02 744.68 930.59 744.96
  C 926.76 747.49 917.71 755.36 924.68 759.48
  Q 927.64 761.22 931.15 761.23
  Q 949.42 761.29 967.69 761.32
  Q 971.93 761.33 976.69 762.26
  Q 991.34 765.13 996.67 778.77
  Q 998.86 784.36 997.47 792.34
  Q 996.43 798.28 992.19 803.55
  C 987.20 809.75 981.38 813.44 974.26 816.58
  Q 971.49 817.81 968.69 818.40
  C 966.09 818.95 963.66 819.53 961.00 819.64
  Q 950.10 820.07 939.98 818.64
  Q 933.39 817.70 925.08 814.62
  C 914.39 810.67 904.61 801.13 908.97 788.54
  C 910.26 784.79 912.52 779.47 916.76 778.60
  Q 925.36 776.83 931.40 779.51
  Q 936.50 781.76 935.65 787.67
  A 2.50 2.49 81.0 0 1 934.30 789.54
  C 932.83 790.27 931.24 790.65 930.05 791.85
  C 926.82 795.12 926.82 798.33 928.06 802.73
  Q 929.19 806.72 933.08 809.17
  C 936.73 811.46 940.48 813.30 944.79 814.01
  Q 954.68 815.65 965.05 814.45
  C 974.62 813.34 984.87 806.99 986.98 796.94
  Q 988.67 788.89 985.51 782.56
  C 982.95 777.42 974.87 775.53 969.65 775.62
  Q 952.90 775.92 939.71 775.61
  Q 928.88 775.35 921.05 772.74
  Q 913.47 770.21 911.94 762.12
  C 910.14 752.59 920.31 747.04 927.04 743.12
  A 0.91 0.91 0.0 0 0 927.09 741.58
  Q 922.57 738.52 918.65 734.19
  C 912.14 727.01 911.48 717.18 914.45 708.06
  C 916.36 702.19 922.66 696.59 927.47 693.31
  C 931.20 690.77 935.81 689.63 940.17 688.08
  Q 942.55 687.24 945.00 686.96
  Q 958.07 685.46 969.78 689.17
  C 970.94 689.54 972.48 689.49 973.41 688.60
  Q 976.17 685.97 981.97 684.42
  Q 995.11 680.92 1005.95 686.75
  C 1007.56 687.62 1009.00 689.42 1010.90 689.43
  Q 1024.28 689.46 1037.42 689.49
  Q 1038.86 689.50 1038.87 690.94
  Q 1038.95 725.17 1038.95 759.74
  C 1038.95 763.81 1041.43 769.60 1046.16 770.27
  Q 1049.54 770.74 1052.37 772.55
  A 0.23 0.23 0.0 0 1 1052.33 772.96
  Q 1051.04 773.43 1049.71 773.43
  Q 1027.27 773.34 1007.36 773.39
  A 0.73 0.72 87.4 0 1 1006.64 772.73
  Q 1006.57 772.02 1007.09 771.83
  Q 1010.22 770.69 1013.16 770.27
  C 1018.10 769.56 1019.51 763.08 1019.52 759.04
  Q 1019.62 731.73 1019.56 702.41
  Q 1019.55 697.54 1015.62 693.13
  C 1014.76 692.17 1013.49 692.00 1012.32 692.36
  Z
  M 940.40 694.55
  C 936.40 699.52 934.75 703.99 934.35 710.55
  C 933.72 720.83 934.85 730.42 940.93 738.88
  C 947.18 747.57 958.97 748.23 965.97 739.81
  C 972.65 731.76 972.51 720.33 970.78 710.46
  Q 969.64 703.99 965.78 697.76
  C 963.73 694.46 959.50 690.79 955.88 689.95
  C 950.95 688.80 944.05 690.02 940.40 694.55
  Z"
/>
<path fill="#fff" d="
  M 867.19 775.86
  Q 855.47 776.57 845.75 771.85
  Q 839.55 768.84 833.07 762.16
  Q 825.09 753.93 822.67 743.13
  C 821.17 736.43 821.39 726.56 823.15 719.79
  Q 827.52 703.06 841.64 693.24
  Q 844.84 691.01 848.18 689.89
  C 851.22 688.87 853.93 687.45 857.20 687.04
  Q 877.92 684.43 892.82 697.39
  Q 896.33 700.46 900.15 705.96
  Q 902.96 710.00 904.43 715.14
  Q 908.42 729.11 904.96 743.78
  Q 903.82 748.61 901.77 752.26
  C 899.56 756.21 897.50 760.65 894.29 763.73
  Q 882.56 774.94 867.19 775.86
  Z
  M 842.96 721.98
  C 843.00 726.20 842.57 731.19 843.25 735.42
  C 845.40 748.94 848.77 762.90 859.93 771.26
  Q 861.78 772.65 864.05 772.95
  C 873.80 774.25 879.91 767.00 882.59 758.55
  C 887.01 744.63 886.10 728.65 882.35 714.04
  C 881.15 709.35 879.62 704.05 876.90 699.99
  C 873.65 695.16 870.00 690.61 863.98 689.76
  C 855.63 688.57 849.78 694.89 846.85 701.99
  Q 842.88 711.64 842.96 721.98
  Z"
/>
<path fill="#fff" d="
  M 1094.85 775.95
  C 1086.99 776.64 1078.00 775.22 1070.79 773.01
  Q 1065.05 771.26 1059.10 766.83
  Q 1048.20 758.73 1052.94 746.55
  Q 1055.00 741.25 1061.81 738.78
  C 1066.57 737.05 1071.42 738.78 1075.09 741.91
  C 1077.21 743.71 1079.89 748.44 1076.51 750.56
  C 1074.55 751.79 1072.08 752.46 1070.51 754.19
  Q 1068.02 756.94 1068.58 760.91
  C 1069.31 765.98 1073.60 767.95 1078.10 769.50
  Q 1090.34 773.73 1101.71 767.94
  C 1107.69 764.90 1110.96 760.99 1109.98 754.02
  Q 1109.32 749.37 1105.43 746.37
  Q 1097.96 740.62 1090.96 738.04
  C 1086.26 736.32 1082.25 733.57 1077.51 731.87
  C 1072.95 730.22 1068.64 727.09 1064.78 724.19
  Q 1060.49 720.97 1057.50 715.04
  C 1053.30 706.70 1057.83 697.50 1064.89 692.88
  C 1072.97 687.59 1082.40 686.03 1092.18 686.49
  Q 1105.40 687.11 1116.11 694.69
  C 1122.66 699.33 1126.51 709.05 1119.89 715.67
  Q 1116.42 719.14 1110.41 718.38
  Q 1104.83 717.68 1101.07 712.20
  C 1099.61 710.07 1101.64 708.27 1103.50 707.58
  Q 1106.54 706.43 1107.54 703.79
  C 1111.13 694.26 1100.04 690.98 1093.23 690.25
  C 1084.89 689.36 1074.11 693.52 1072.32 702.64
  Q 1071.91 704.70 1072.74 707.34
  C 1073.88 710.98 1078.47 714.20 1081.73 715.72
  C 1087.26 718.28 1092.59 721.17 1098.27 723.37
  Q 1107.13 726.82 1116.74 733.11
  Q 1122.07 736.59 1124.86 742.22
  C 1129.25 751.09 1127.93 760.13 1120.21 766.41
  C 1117.17 768.88 1113.43 771.46 1109.74 772.87
  Q 1103.74 775.18 1094.85 775.95
  Z"
/>
<path fill="#fff" d="
  M 1329.01 750.04
  Q 1330.25 749.15 1330.74 747.61
  Q 1333.43 739.13 1342.17 738.19
  C 1348.53 737.50 1353.79 741.37 1355.49 747.30
  A 2.09 2.09 0.0 0 1 1354.44 749.74
  C 1350.59 751.73 1344.52 756.17 1346.59 761.25
  Q 1348.70 766.43 1352.59 768.56
  C 1355.45 770.13 1360.13 770.76 1363.59 771.18
  Q 1368.73 771.80 1375.39 769.91
  Q 1379.58 768.72 1383.56 765.23
  C 1389.53 760.00 1389.56 751.83 1383.67 746.66
  Q 1380.24 743.65 1374.90 740.98
  Q 1364.94 736.02 1356.19 732.48
  Q 1352.04 730.80 1348.99 728.71
  Q 1345.73 726.48 1342.76 724.41
  C 1339.01 721.81 1335.20 716.96 1334.17 712.62
  C 1331.34 700.66 1339.90 693.00 1350.20 689.21
  C 1355.67 687.20 1359.98 686.75 1365.51 686.53
  Q 1381.14 685.91 1393.79 694.67
  C 1396.50 696.54 1398.32 700.01 1399.64 702.99
  C 1401.46 707.07 1400.65 712.81 1397.34 715.73
  C 1391.81 720.62 1382.02 718.86 1378.99 711.83
  A 2.87 2.86 -25.4 0 1 1380.30 708.15
  C 1381.73 707.40 1383.26 707.06 1384.32 705.72
  C 1387.94 701.12 1385.70 695.27 1380.66 692.77
  C 1374.46 689.70 1365.20 688.88 1358.50 692.42
  C 1354.71 694.43 1351.76 696.23 1350.26 700.55
  C 1348.46 705.72 1351.58 711.17 1356.05 713.77
  C 1362.31 717.41 1369.69 720.56 1376.66 723.50
  Q 1386.03 727.46 1393.76 732.71
  C 1403.13 739.07 1408.98 751.22 1401.93 761.37
  C 1396.95 768.54 1389.19 773.11 1380.35 774.78
  C 1366.53 777.38 1353.00 775.82 1340.49 769.48
  C 1333.94 766.15 1329.88 760.76 1329.17 753.39
  Q 1328.72 748.81 1327.13 753.13
  C 1326.00 756.21 1325.32 759.16 1323.13 761.70
  C 1317.61 768.09 1309.97 773.60 1301.35 775.15
  Q 1282.35 778.57 1266.78 767.59
  C 1249.57 755.46 1245.77 731.47 1252.81 712.50
  Q 1256.95 701.34 1267.37 694.20
  C 1270.12 692.32 1273.12 691.43 1276.07 690.12
  C 1284.31 686.49 1295.17 685.90 1303.13 687.27
  Q 1309.88 688.44 1316.79 692.32
  Q 1321.04 694.71 1324.48 700.15
  Q 1328.24 706.08 1327.14 713.47
  C 1326.30 719.06 1321.50 724.67 1315.38 725.19
  Q 1305.93 725.99 1301.21 718.22
  A 0.63 0.62 52.2 0 1 1301.30 717.46
  C 1303.19 715.51 1305.25 713.93 1306.74 711.57
  C 1309.48 707.20 1308.22 698.23 1304.06 694.52
  C 1299.86 690.77 1292.14 690.59 1287.22 692.23
  Q 1284.75 693.05 1282.72 695.39
  Q 1276.00 703.12 1274.65 714.44
  C 1273.88 720.89 1273.14 727.82 1273.51 734.42
  Q 1274.05 743.94 1275.38 750.61
  Q 1276.29 755.17 1279.43 759.84
  C 1286.79 770.80 1298.67 770.56 1309.15 764.48
  C 1315.84 760.59 1318.76 755.38 1320.99 748.39
  A 1.53 1.52 4.8 0 1 1322.24 747.34
  Q 1326.13 746.81 1328.24 749.90
  Q 1328.56 750.36 1329.01 750.04
  Z"
/>

<path fill="#fff" d="
  M 1214.19 751.72
  L 1214.17 714.03
  Q 1214.08 709.51 1214.11 704.96
  Q 1214.15 699.53 1213.25 697.47
  C 1211.36 693.15 1206.59 691.44 1202.04 691.01
  A 0.83 0.83 0.0 0 1 1201.29 690.10
  L 1201.31 689.85
  A 0.39 0.39 0.0 0 1 1201.70 689.49
  L 1233.08 689.52
  A 0.66 0.66 0.0 0 1 1233.74 690.14
  Q 1233.95 693.25 1233.95 696.20
  Q 1234.06 728.76 1233.88 760.23
  C 1233.85 765.89 1236.26 769.45 1241.59 770.42
  Q 1244.28 770.91 1246.68 771.73
  Q 1249.01 772.52 1246.60 772.99
  Q 1244.69 773.36 1242.94 773.36
  Q 1222.91 773.37 1201.72 773.39
  Q 1200.12 773.39 1201.26 772.27
  Q 1201.98 771.57 1202.93 771.38
  C 1208.60 770.23 1214.10 768.45 1214.06 761.47
  Q 1214.03 756.57 1214.19 751.72
  Z"
/>

<path fill="#208af5" d="
  M 673.05 780.07
  C 659.69 782.39 647.88 785.76 637.12 793.34
  C 624.34 802.35 611.45 812.81 598.79 822.86
  Q 590.69 829.29 582.73 836.28
  A 1.17 1.17 0.0 0 1 581.33 836.39
  Q 580.14 835.65 579.23 834.77
  C 569.42 825.23 558.42 815.47 549.48 806.59
  Q 548.91 806.03 549.39 805.40
  C 551.77 802.26 555.46 800.06 558.32 797.61
  C 562.80 793.77 567.60 790.48 572.19 786.77
  C 579.16 781.11 585.84 776.09 592.42 770.63
  Q 596.99 766.84 603.63 762.03
  Q 608.82 758.27 614.62 753.39
  C 619.67 749.13 625.34 745.37 630.53 741.09
  Q 636.73 735.98 644.53 734.52
  Q 653.25 732.89 663.20 732.83
  Q 678.08 732.75 694.84 732.76
  Q 697.00 732.76 697.00 734.92
  L 697.07 778.78
  Q 697.07 779.85 696.00 779.79
  C 688.38 779.37 680.41 778.80 673.05 780.07
  Z"
/>
</svg>
